<?xml version="1.0" ?><!DOCTYPE svg  PUBLIC '-//W3C//DTD SVG 1.1//EN'  'http://www.w3.org/Graphics/SVG/1.1/DTD/svg11.dtd'><svg enable-background="new 0 0 126 126" id="Layer_1" version="1.1" viewBox="0 0 126 126" xml:space="preserve" xmlns="http://www.w3.org/2000/svg" xmlns:xlink="http://www.w3.org/1999/xlink"><g><g><g><path d="M111.047,52.9078c-4.8347-0.7863-9.4754-2.5709-13.4271-5.4652     c-2.6255-1.9229-4.9602-4.2359-5.5287-6.6389c-1.4472-6.1248-12.3697-12.5003-17.0208-10.9255     c-4.651,1.5745-10.7492-0.1094-10.7492-0.1094l-3.8409-1.8567l-0.8738-0.4189h-0.0091L1,61.326l65.1696,37.8804l54.7408-31.6069     c1.5928-0.9191,2.9216-2.2844,3.6134-3.9865C127.2994,56.8254,117.3034,53.9256,111.047,52.9078z" fill="#F3F6FD"/><g><polygon fill="#FDFEFF" points="116.3892,70.2101 79.2974,48.9402 70.4215,54.0649 107.5136,75.3347 106.9807,75.6423       69.8887,54.3724 42.2048,70.3556 79.298,91.6264 78.7652,91.9339 41.672,70.6631 32.8008,75.7851 69.8944,97.0559       69.3615,97.3634 3.9399,59.6289 4.4727,59.3209 32.3811,75.5411 41.2523,70.4196 13.3437,54.1994 13.8765,53.8914       41.7851,70.1121 50.7378,64.943 22.829,48.7228 23.2083,48.5037 51.1171,64.7239 60.1466,59.5108 32.2376,43.2901       32.612,43.0742 60.521,59.2948 69.469,54.1284 41.5598,37.9077 42.0925,37.6002 70.0018,53.8209 78.8777,48.6962       50.9683,32.4756 51.5011,32.168 116.922,69.9026     "/></g></g><polygon fill="#E1E9F4" points="75.8579,56.0258 83.1491,60.2606 83.1491,61.2814 68.4941,69.7386 59.5417,64.5375     46.4633,72.0885 28.0751,61.4021 28.0751,60.3812 41.5763,52.5886 32.7024,47.4298 32.6963,46.4151 47.3513,37.9518     57.8986,44.0772 70.4513,36.8342 88.8335,47.5144 88.8396,48.5353   "/><g><g><g enable-background="new    "><g><polygon fill="#2A2A5E" points="50.8764,56.5221 50.8793,57.5387 69.2657,68.2237 69.2628,67.2071       "/></g><g><polygon fill="#4C4A8B" points="69.2628,67.2071 69.2657,68.2237 83.9201,59.763 83.9172,58.7464       "/></g><g><polygon fill="#DEE7F8" points="50.8764,56.5221 69.2628,67.2071 83.9172,58.7464 65.5308,48.0614       "/><polygon fill="#FFFFFF" points="82.5376,58.7445 65.5296,48.8607 52.2561,56.524 69.2636,66.4078       "/></g></g><g><g enable-background="new    "><g><path d="M60.0814,53.8953c-0.1723,0.0995-0.3214,0.2142-0.4623,0.3439         c0.2597-0.0898,0.4465-0.2134,0.6986-0.2817c-0.1881,0.1401-0.3823,0.2781-0.5358,0.4311         c-0.1547,0.1552-0.2722,0.3175-0.2968,0.5008c0.1243-0.0765,0.1963-0.1774,0.3316-0.2555         c0.0273-0.0158,0.0572-0.0306,0.0907-0.0441c0.0032,0.0869-0.0481,0.1638-0.087,0.2378         c-0.1429,0.2745,0.0306,0.5036,0.28,0.725c0.1357,0.1193,0.3038,0.2213,0.4769,0.3204         c0.1175,0.0683,0.2498,0.125,0.3748,0.1875c0.0138,0.0072,0.028,0.014,0.0426,0.0206         c0.1271,0.0585,0.279,0.1002,0.4292,0.1396c0.0296,0.0079,0.0697,0.0134,0.0934-0.0003         c0.0059-0.004-0.5608-0.2497-0.8135-0.5336c-0.0579-0.0639-0.1861-0.2076-0.2379-0.2651         c0.0135,0.0107,0.0296,0.0215,0.0432,0.0323c0.1445,0.1171,0.3537,0.1926,0.5404,0.2823         c0.0421,0.0201,0.109,0.0388,0.155,0.0136c0.0389-0.0224,0.0001-0.0549-0.0144-0.0819         c-0.0368-0.0647-0.0973-0.1229-0.1329-0.1882c-0.0417-0.0761-0.0897-0.1502-0.1178-0.2285         c-0.0257-0.0726-0.0153-0.1459-0.0174-0.2191c0.1702,0.1667,0.3877,0.3046,0.6936,0.3901         c0.0433,0.0122,0.0965,0.0374,0.1413,0.0115c0.0436-0.0266,0.0177-0.0603-0.0094-0.0905         c-0.0851-0.0941-0.4673-0.495-0.0768-0.888c-0.0079,0.0891,0.0289,0.1581,0.0471,0.2292         c0.0011,0.0194-0.004,0.0453,0.0444,0.0446c0.012-0.0004,0.0206-0.0028,0.027-0.0065         c0.0159-0.0092,0.0175-0.0262,0.0228-0.0395c0.0492-0.1372,0.1008-0.2744,0.1499-0.4117         c0.0176-0.0474,0.0601-0.0862,0.1-0.1279c0.0368-0.0379,0.0669-0.065,0.0961-0.0819         c0.0687-0.0397,0.1323-0.022,0.2651,0.0481c0.2028,0.1063,0.4094,0.2105,0.5151,0.3642         c-0.0228-0.13-0.0854-0.2514-0.2274-0.3556c-0.0198-0.0144-0.0668-0.0273-0.0345-0.0503         c0.0341-0.0199,0.0634,0.0032,0.0917,0.0101c0.1611,0.0374,0.2984,0.0941,0.4221,0.166         c-0.0713-0.1207-0.186-0.2249-0.3294-0.3197c0.6268,0.1581,1.1525,0.4203,1.5774,0.7178         c-0.0896-0.1274-0.2103-0.244-0.3282-0.3611c-0.0423-0.042-0.0842-0.084-0.1243-0.1267         c-0.179-0.143-0.4177-0.2773-0.6627-0.3865c-0.2623-0.1164-0.6523-0.2363-1.1712-0.1731         c0.0017-0.0271,0.0191-0.0456,0.0439-0.0599c0.0364-0.021,0.0885-0.0327,0.1292-0.0485         c0.0733-0.028,0.1602-0.0453,0.2733-0.0762c-0.2182-0.0215-0.3783,0.0008-0.5238,0.0675         c-0.0497,0.023-0.0846,0.0517-0.1701,0.0381C61.2969,53.4237,60.8,53.566,60.33,53.77         C60.2414,53.8087,60.1591,53.8504,60.0814,53.8953z" fill="#A0533F"/></g><g><path d="M62.158,54.0618c-0.0292,0.0168-0.0593,0.044-0.0961,0.0819c-0.0399,0.0417-0.0823,0.0805-0.1,0.1279         c-0.0491,0.1372-0.1007,0.2745-0.1499,0.4117c-0.0054,0.0134-0.007,0.0304-0.0228,0.0395         c-0.0063,0.0037-0.015,0.0061-0.027,0.0065c-0.0484,0.0007-0.0433-0.0252-0.0444-0.0446         c-0.0182-0.0711-0.055-0.1401-0.0471-0.2292c-0.3904,0.393-0.0082,0.7939,0.0768,0.888         c0.0271,0.0302,0.053,0.064,0.0094,0.0905c-0.0448,0.0259-0.098,0.0007-0.1413-0.0115         c-0.3059-0.0855-0.5234-0.2234-0.6936-0.3901c0.002,0.0733-0.0083,0.1465,0.0174,0.2191         c0.0281,0.0783,0.076,0.1523,0.1178,0.2285c0.0356,0.0654,0.0961,0.1236,0.1329,0.1882         c0.0146,0.027,0.0533,0.0595,0.0159,0.0811c-0.0475,0.026-0.1144,0.0073-0.1565-0.0128         c-0.1867-0.0898-0.3959-0.1652-0.5404-0.2823c-0.0136-0.0108-0.0297-0.0216-0.0432-0.0323         c0.0517,0.0575,0.18,0.2012,0.2379,0.2651c0.2527,0.2838,0.7911,0.5173,0.8194,0.5295         c-0.0296,0.0177-0.0697,0.0122-0.0993,0.0043c-0.1501-0.0394-0.3021-0.0811-0.4292-0.1396         c-0.0075,0.0057-0.0144,0.0117-0.0204,0.0182c-0.0837,0.0941,0.0557,0.2313,0.3121,0.3082         c0.2389,0.0711,0.6719,0.1166,0.7961,0.0449c0.3766,0.0929,0.7781,0.1658,1.1647,0.1982         c0.0848,0.0071,0.1688,0.0122,0.2516,0.0153c0.1268,0.0047,0.2507,0.0045,0.37-0.0013         c0.355-0.0172,0.6691-0.0833,0.8954-0.214c0.2262-0.1306,0.3414-0.3123,0.3724-0.5178         c0.0104-0.0689,0.0112-0.1404,0.0037-0.2136c-0.005-0.0481-0.0135-0.097-0.0254-0.1462         c-0.0544-0.2244-0.1787-0.4576-0.3457-0.6722c0.1311-0.0753,0.0538-0.3263-0.0681-0.4649         c-0.1319-0.1487-0.3684-0.2299-0.5311-0.1818c-0.0207,0.0065-0.0389,0.0144-0.0552,0.0238         c0.113,0.1202,0.2337,0.2367,0.3233,0.3642c-0.425-0.2974-0.9507-0.5597-1.5774-0.7178         c0.1434,0.0949,0.2581,0.199,0.3294,0.3197c-0.1236-0.0718-0.261-0.1286-0.4221-0.166         c-0.0283-0.0068-0.0576-0.03-0.0873-0.0129c-0.0368,0.0258,0.0103,0.0388,0.0301,0.0531         c0.142,0.1042,0.2046,0.2256,0.2274,0.3556c-0.1057-0.1537-0.3123-0.2579-0.5151-0.3642         C62.2902,54.0398,62.2267,54.0221,62.158,54.0618z" fill="#ECB4BF"/></g><g><path d="M63.8687,56.6647c0.5539,0.0615,1.3669,0.0837,1.4097,0.0849         c-0.0019-0.0248-0.0376-0.4956-0.1418-0.8166c-0.031,0.2055-0.1463,0.3872-0.3724,0.5178         C64.5378,56.5813,64.2237,56.6475,63.8687,56.6647z" fill="#D390A1"/></g><g><path d="M65.1403,55.7194c0.0075,0.0732,0.0067,0.1447-0.0037,0.2136c0.1042,0.321,0.14,0.7918,0.1418,0.8166         l0.8378,0.1214l0.1338,0.0194c0.0574-0.1399,0.0653-0.2811,0.0454-0.4149c-0.2169-0.1494-0.4223-0.286-0.6051-0.4048         C65.466,55.9231,65.2754,55.803,65.1403,55.7194z" fill="#B6CBEA"/></g><g><path d="M63.4987,56.666c0.1443,0.0784,0.3517,0.1892,0.6062,0.3199         c0.2053,0.1063,0.441,0.2258,0.6987,0.3519c0.2305,0.0119,0.4737,0.0077,0.7148-0.025l-0.0333-0.078l-0.2067-0.4853         c-0.0428-0.0012-0.8557-0.0234-1.4097-0.0849C63.7494,56.6705,63.6255,56.6707,63.4987,56.666z" fill="#B6CBEA"/></g><g><path d="M67.1548,56.358l1.0603-0.1811c0.2552,0.4465,0.4223,0.9396,0.5314,1.3818l2.7729-1.6009         l-2.3564-1.3694l-3.1496,0.9887c0.8301,0.0365,1.6112,0.1341,1.6523,0.1393L67.1548,56.358z" fill="#2A2A5E"/></g><g><path d="M65.1149,55.5732c0.0119,0.0492,0.0204,0.0981,0.0254,0.1462         c0.1351,0.0836,0.3257,0.2037,0.5501,0.3512c0.1828,0.1188,0.3882,0.2554,0.6051,0.4048         c0.6032,0.4155,1.2956,0.9303,1.8392,1.4381l0.2066-0.1193l0.4057-0.2342c-0.1095-0.4435-0.2766-0.9366-0.5318-1.3831         l-1.0603,0.1811l0.5109-0.6416c-0.0411-0.0051-0.8222-0.1027-1.6523-0.1393C65.7005,55.5634,65.3865,55.559,65.1149,55.5732z         " fill="#3A3A77"/></g><g><polygon fill="#C97F94" points="72.4319,56.9235 72.6494,57.2992 72.2395,57.6161 72.9217,57.6103 73.3144,57.9337          73.5199,57.5557 74.1718,57.4386 73.6149,57.2101 73.627,56.815 73.0787,57.0514        "/></g><g><polygon fill="#1E72C6" points="65.2784,56.7496 65.4851,57.2348 65.742,57.2453 67.2885,58.4021 68.126,57.9185          66.134,57.0204 66.1162,56.871        "/></g><g><path d="M63.2516,57.1719l-1.7169,1.8207l2.3564,1.3694l2.7741-1.6017         c-0.7644-0.0639-1.6151-0.1623-2.3863-0.3109l0.3173-0.6143L63.487,58.129C63.4782,58.1052,63.3123,57.6525,63.2516,57.1719z         " fill="#2A2A5E"/></g><g><path d="M63.2471,56.6507c-0.0252,0.1573-0.0185,0.3395,0.0045,0.5212         c0.0607,0.4806,0.2266,0.9333,0.2353,0.9571l1.1093-0.2938l-0.3173,0.6143c0.7712,0.1486,1.6219,0.247,2.3863,0.3109         l0.4054-0.2326l0.2091-0.1207c-0.8755-0.317-1.7606-0.719-2.4762-1.0692c-0.2577-0.1262-0.4933-0.2456-0.6987-0.3519         c-0.2545-0.1307-0.4619-0.2415-0.6062-0.3199C63.4159,56.6629,63.3319,56.6578,63.2471,56.6507z" fill="#3A3A77"/></g><g><path d="M66.2954,56.4754c0.0199,0.1338,0.0121,0.2751-0.0454,0.4149l-0.1338-0.0194l0.0177,0.1494         l1.992,0.8981l-0.8375,0.4835l-1.5464-1.1567l-0.2569-0.0105l0.0333,0.078c-0.2411,0.0327-0.4843,0.0369-0.7148,0.025         c0.7155,0.3503,1.6006,0.7523,2.4762,1.0692l-0.2091,0.1207l1.2705-0.7336l-0.2066,0.1193         C67.5911,57.4057,66.8986,56.8909,66.2954,56.4754z" fill="#DEE7F8"/></g><g><polygon fill="#C97F94" points="70.7121,57.9164 70.9308,58.2914 70.521,58.6083 71.2032,58.6025 71.5958,58.9259          71.8001,58.5487 72.4532,58.4308 71.8963,58.2024 71.9085,57.8072 71.3602,58.0436        "/></g><path d="M63.1792,51.111l5.9839,3.4774l-3.1496,0.9887c-0.313-0.0138-0.627-0.0181-0.8986-0.004        c-0.0544-0.2243-0.1786-0.4576-0.3377-0.6765c0.1231-0.071,0.0458-0.3221-0.0761-0.4606        c-0.1319-0.1488-0.3684-0.2299-0.5311-0.1818c-0.0207,0.0065-0.0389,0.0144-0.06,0.0268        c-0.0423-0.042-0.0842-0.084-0.1243-0.1267c-0.179-0.143-0.4177-0.2773-0.6627-0.3866        c-0.2623-0.1164-0.6523-0.2363-1.1712-0.1731c0.0017-0.0271,0.0192-0.0457,0.0439-0.06        c0.0364-0.021,0.0885-0.0327,0.1292-0.0485c0.0733-0.0281,0.1602-0.0453,0.2733-0.0762        c-0.2182-0.0215-0.3783,0.0008-0.5238,0.0676c-0.0497,0.023-0.0846,0.0518-0.1701,0.0381        C61.297,53.4237,60.8,53.566,60.33,53.7701c-0.0886,0.0386-0.1709,0.0803-0.2486,0.1252        c-0.1723,0.0995-0.3214,0.2141-0.4623,0.3439c0.2597-0.0898,0.4464-0.2135,0.6986-0.2817        c-0.1881,0.1401-0.3823,0.2781-0.5358,0.4311c-0.1547,0.1551-0.2722,0.3175-0.2968,0.5007        c0.1243-0.0764,0.1963-0.1773,0.3315-0.2554c0.0273-0.0157,0.0572-0.0305,0.0907-0.0441        c0.0032,0.0869-0.0481,0.1638-0.087,0.2377c-0.143,0.2745,0.0306,0.5036,0.28,0.725        c0.1357,0.1192,0.3038,0.2213,0.4769,0.3204c0.1175,0.0682,0.2498,0.125,0.3748,0.1875        c0.0138,0.0071,0.0281,0.014,0.0426,0.0206c-0.0075,0.0057-0.0144,0.0117-0.0204,0.0182        c-0.0837,0.0941,0.0557,0.2314,0.3121,0.3083c0.2389,0.071,0.6719,0.1166,0.8035,0.0402        c0.3691,0.0976,0.7707,0.1705,1.1573,0.2029c-0.0252,0.1574-0.0185,0.3396,0.0045,0.5212l-1.7169,1.8207l-5.9839-3.4774        L63.1792,51.111z" fill="#A6C2FF"/><g><polygon fill="#9EB5DF" points="68.9936,58.9086 69.2123,59.2836 68.8024,59.6005 69.4834,59.5955 69.8773,59.9181          70.0816,59.5409 70.7347,59.423 70.1778,59.1946 70.1899,58.7994 69.6404,59.0365        "/></g><g><polygon fill="#9EB5DF" points="67.275,59.9008 67.4938,60.2759 67.0826,60.5934 67.7649,60.5877 68.1575,60.911          68.363,60.5331 69.0149,60.416 68.4593,60.1868 68.4702,59.7923 67.9218,60.0287        "/></g><g><polygon fill="#9EB5DF" points="65.5565,60.893 65.774,61.2688 65.3641,61.5856 66.0463,61.5799 66.4389,61.9032          66.6445,61.5253 67.2963,61.4082 66.7395,61.1797 66.7516,60.7845 66.2033,61.0209        "/></g><g><polygon fill="#B6CBEA" points="70.4803,63.1821 70.9798,63.4723 79.2428,58.7017 78.7432,58.4114        "/></g><g><polygon fill="#B6CBEA" points="65.9448,63.2999 66.4431,63.5894 77.0829,57.4465 76.5846,57.157        "/></g><g><polygon fill="#B6CBEA" points="67.0242,63.9271 67.5237,64.2174 78.1635,58.0745 77.6639,57.7842        "/></g></g></g></g><g><g enable-background="new    "><g><polygon fill="#2A2A5E" points="56.5642,43.7763 56.5671,44.7929 74.9535,55.4779 74.9506,54.4614       "/></g><g><polygon fill="#4C4A8B" points="74.9506,54.4614 74.9535,55.4779 89.6078,47.0172 89.605,46.0007       "/></g><g><polygon fill="#DEE7F8" points="56.5642,43.7763 74.9506,54.4614 89.605,46.0007 71.2186,35.3157       "/><polygon fill="#FFFFFF" points="88.2252,45.9987 71.2177,36.1149 57.9437,43.7783 74.9518,53.6621       "/></g></g><g><g enable-background="new    "><g><path d="M67.5501,42.4645c-0.0461,0.0266-0.0566,0.0665-0.0657,0.1443         c-0.0261,0.2342-0.1109,0.5367,0.1399,0.7142c0.0309,0.0223,0.0828,0.0539,0.0392,0.0833         c-0.0477,0.0278-0.1046,0.0045-0.1488-0.0086c-0.0681-0.0208-0.1374-0.0381-0.2143-0.0453         c-0.0469-0.0031-0.0891,0.0032-0.1239,0.0233c-0.0048,0.0028-0.0094,0.0058-0.0139,0.009         c-0.0398,0.0287-0.0276,0.0575-0.0017,0.0826c0.1197,0.1099,0.2979,0.1775,0.5325,0.1509         c0.18-0.0208,0.3237,0.0065,0.4749,0.0367c0.3717,0.0747,0.7434,0.148,1.1589,0.143         c0.1327-0.0022,0.2692-0.0108,0.3981,0.0065c0.1031,0.0399,0.1819,0.0892,0.245,0.1446c0.008,0,0.0161,0,0.0241-0.0001         c0.3997-0.0021,0.7548-0.0625,0.9989-0.2034c0.2448-0.1413,0.3505-0.3471,0.3555-0.5788         c0.0005-0.0209,0.0001-0.0419-0.0011-0.0632c-0.014-0.0055-0.028-0.0111-0.0419-0.0168         c-0.057-0.0245-0.1113-0.0517-0.1471-0.0884c-0.0319-0.0531-0.448-1.0547-0.4241-1.1143         c0.0529-0.1293-0.0616-0.2838-0.2338-0.3305c-0.0471-0.0129-0.1004-0.0266-0.1563-0.0029         c-0.005,0.0022-0.0096,0.0045-0.0137,0.0069c-0.0398,0.023-0.0398,0.053-0.0377,0.0829         c0.0059,0.0539,0.0577,0.097,0.0885,0.1451c0.0118,0.0178,0.0213,0.041-0.0072,0.0574         c-0.0441,0.0223-0.0725,0.0015-0.0997-0.0085c-0.0928-0.0395-0.1744-0.0884-0.2784-0.1185         c0.0508,0.0165,0.0965,0.0345,0.1399,0.0568c0.2461,0.12,0.3965,0.2838,0.5581,0.4426         c0.0264,0.0251,0.0865,0.0577,0.0378,0.0858c-0.0533,0.0263-0.1164-0.0032-0.1671-0.0183         c-0.2203-0.0819-0.4507-0.1365-0.6886-0.1825c-0.1908-0.0373-0.3954-0.0496-0.6011-0.0812         c0.1375,0.0266,0.2664,0.0496,0.3828,0.0869c0.0285,0.0079,0.0544,0.0201,0.0432,0.0424         c-0.003,0.0063-0.0079,0.0111-0.0141,0.0147c-0.0168,0.0097-0.0431,0.0105-0.0667,0.0105         c-0.0558,0.0022-0.1092-0.0029-0.1637-0.0072c-0.2083-0.0173-0.4217-0.0101-0.6339,0.005         c-0.026,0.0019-0.0491,0.0039-0.061,0.0107c-0.0102,0.0059-0.012,0.0154-0.0001,0.0317         c-0.0065,0.0082-0.0146,0.0147-0.0236,0.0199c-0.0322,0.0186-0.0779,0.0206-0.1205,0.0218         c-0.2531,0.0057-0.6097,0.1156-0.8555,0.1559C67.6527,42.4292,67.5888,42.4422,67.5501,42.4645z" fill="#ECB4BF"/></g><g><polygon fill="#DEE7F8" points="71.5124,44.0467 71.5104,44.0471 71.5124,44.0472        "/></g><g><path d="M71.3487,43.1666c-0.0051,0.2317-0.1107,0.4375-0.3555,0.5788         c-0.2442,0.141-0.5993,0.2014-0.9989,0.2034c0.5286,0.0694,1.4691,0.0969,1.5161,0.0983         C71.5112,44.0312,71.4678,43.4767,71.3487,43.1666z" fill="#D390A1"/></g><g><polygon fill="#DEE7F8" points="71.513,44.0484 71.5134,44.0473 71.5124,44.0472        "/></g><g><path d="M71.3477,43.1034c0.0011,0.0213,0.0015,0.0423,0.0011,0.0632         c0.1191,0.3101,0.1625,0.8646,0.1637,0.8801l0.8379,0.1219l0.1338,0.0194c0.0576-0.1403,0.0653-0.2822,0.0452-0.4164         c-0.2164-0.1492-0.4213-0.2856-0.6037-0.4041c-0.0898-0.0588-0.1741-0.1132-0.2517-0.1628         C71.5591,43.1779,71.4506,43.1438,71.3477,43.1034z" fill="#B6CBEA"/></g><g><path d="M69.9702,43.9489c0.082,0.072,0.1374,0.1542,0.1851,0.2392c0.058,0.0304,0.1194,0.0623,0.1836,0.0955         c0.2049,0.1061,0.4399,0.2252,0.6969,0.3511c0.2313,0.012,0.4757,0.008,0.7178-0.0249l-0.0334-0.078l-0.2073-0.4833         c-0.0495-0.0026-0.9901-0.0302-1.5187-0.0996C69.9863,43.9489,69.9782,43.949,69.9702,43.9489z" fill="#B6CBEA"/></g><g><path d="M67.305,41.0879c-0.1336,0.0771-0.2477,0.1679-0.3408,0.2728         c-0.0096,0.0106-0.0209,0.0192-0.0333,0.0264c-0.0472,0.0273-0.1109,0.0339-0.1631,0.0527         c-0.1298,0.048-0.2433,0.1008-0.3425,0.158c-0.3386,0.1955-0.5088,0.4425-0.5804,0.7242         c-0.0723,0.291,0.0776,0.5367,0.3095,0.7666c0.3565,0.3528,0.7863,0.6675,1.358,0.9132         c0.4653,0.2012,0.9554,0.3808,1.4506,0.5576c0.1094,0.0387,0.2198,0.0763,0.3307,0.1134         c0.08,0.0268,0.1602,0.0533,0.2406,0.0798c0.0856,0.0282,0.1713,0.0564,0.2569,0.0848         c0.06,0.0153,0.0999,0.0153,0.1355-0.0052c0.0194-0.0112,0.0376-0.0286,0.0571-0.053         c0.1049-0.1336,0.0804-0.1753,0.1828-0.3089c0.0599-0.0719,0.0628-0.1423,0.0272-0.2105         c-0.0126-0.024-0.0253-0.048-0.0387-0.0718c-0.0477-0.085-0.1031-0.1671-0.1851-0.2392         c-0.0631-0.0554-0.1418-0.1047-0.245-0.1446c-0.1289-0.0173-0.2654-0.0086-0.3981-0.0065         c-0.4156,0.005-0.7873-0.0683-1.1589-0.143c-0.1512-0.0302-0.2949-0.0575-0.4749-0.0367         c-0.2346,0.0266-0.4128-0.0409-0.5325-0.1509c-0.0259-0.0251-0.0382-0.0539,0.0017-0.0826         c0.0045-0.0033,0.0091-0.0063,0.0139-0.009c0.0349-0.0201,0.077-0.0264,0.1239-0.0233         c0.0769,0.0072,0.1462,0.0244,0.2143,0.0453c0.0442,0.0132,0.1011,0.0364,0.1442,0.0115         c0.0481-0.0324-0.0037-0.064-0.0346-0.0862c-0.2508-0.1775-0.166-0.4799-0.1399-0.7142         c0.0092-0.0777,0.0196-0.1176,0.0657-0.1443c0.0387-0.0223,0.1026-0.0353,0.212-0.0533         c0.2458-0.0403,0.6024-0.1502,0.8555-0.1559c0.0426-0.0011,0.0882-0.0032,0.1205-0.0218         c0.009-0.0052,0.0171-0.0117,0.0236-0.0199c-0.0119-0.0163-0.0101-0.0258,0.0001-0.0317         c0.0118-0.0068,0.035-0.0088,0.061-0.0107c0.2122-0.0151,0.4255-0.0223,0.6339-0.005         c0.0546,0.0043,0.1079,0.0094,0.1637,0.0072c0.0236,0,0.0498-0.0008,0.0667-0.0105c0.0062-0.0036,0.011-0.0083,0.0141-0.0147         c0.0113-0.0223-0.0147-0.0345-0.0432-0.0424c-0.1164-0.0374-0.2453-0.0604-0.3828-0.0869         c0.2057,0.0316,0.4103,0.0438,0.6011,0.0812c0.2379,0.046,0.4683,0.1006,0.6763,0.1782         c0.0631,0.0194,0.1262,0.0488,0.1748,0.0251c0.0535-0.0307-0.0067-0.0633-0.033-0.0884         c-0.1616-0.1588-0.312-0.3226-0.5581-0.4426c-0.0434-0.0223-0.0891-0.0402-0.1399-0.0568         c0.104,0.0302,0.1856,0.079,0.2784,0.1185c0.0273,0.0101,0.0556,0.0309,0.0955,0.0108         c0.0327-0.0187,0.0232-0.0418,0.0115-0.0596c-0.0308-0.0481-0.0826-0.0913-0.0885-0.1451         c-0.0021-0.03-0.0021-0.0599,0.0377-0.0829c0.0696-0.0306,0.1229-0.0169,0.1699-0.004         c0.1721,0.0467,0.2867,0.2012,0.2338,0.3305c-0.0239,0.0596,0.3922,1.0612,0.4241,1.1143         c0.0358,0.0367,0.0902,0.0639,0.1471,0.0884c0.0139,0.0057,0.0279,0.0113,0.0419,0.0168         c0.1029,0.0404,0.2115,0.0744,0.3262,0.1013c0.0951,0.0223,0.1942,0.0396,0.2982,0.0514         c0.119,0.0144,0.5683-0.0431,0.7746-0.1049c0.0394-0.0118,0.0849-0.0218,0.1133-0.0382         c0.0271-0.0156,0.0384-0.037,0.0138-0.071l-0.1442-0.1395l-0.1399-0.1353l-0.7016-0.6786         c-0.1531-0.1236-0.3087-0.2471-0.4593-0.3722c-0.2371-0.1969-0.5413-0.355-0.8642-0.5008         c-0.3217-0.1451-0.6633-0.273-1.0411-0.3729c-0.4706-0.1236-0.9582-0.1114-1.4648-0.0165         C67.7647,40.8821,67.5116,40.9687,67.305,41.0879z" fill="#2A2A5E"/></g><path d="M69.4145,38.4079l5.9839,3.4774l-2.8087,0.8819l-0.7015-0.6787        c-0.1531-0.1235-0.3087-0.2472-0.4593-0.3721c-0.2371-0.1969-0.5413-0.355-0.8642-0.5008        c-0.3217-0.1451-0.6633-0.273-1.0411-0.373c-0.4706-0.1235-0.9581-0.1114-1.4648-0.0165        c-0.2941,0.0559-0.5471,0.1425-0.7537,0.2617c-0.1336,0.0771-0.2477,0.1678-0.3408,0.2729        c-0.0097,0.0106-0.0209,0.0192-0.0333,0.0264c-0.0472,0.0272-0.1109,0.0339-0.1631,0.0526        c-0.1298,0.048-0.2433,0.1008-0.3425,0.1581c-0.3386,0.1955-0.5088,0.4424-0.5804,0.7241        c-0.0723,0.291,0.0776,0.5368,0.3095,0.7667c0.3565,0.3528,0.7863,0.6674,1.358,0.9132        c0.4653,0.2012,0.9554,0.3808,1.4506,0.5576c0.1094,0.0386,0.2198,0.0762,0.3307,0.1133l-1.525,1.6174l-5.9839-3.4775        L69.4145,38.4079z" fill="#A6C2FF"/><g><path d="M73.3901,43.6549l1.0603-0.1811c0.2552,0.4465,0.4211,0.9403,0.5314,1.3818l2.7729-1.6009         l-2.3564-1.3694l-2.8086,0.8819l0.1399,0.1353c0.6392,0.0451,1.1436,0.1082,1.1702,0.1115L73.3901,43.6549z" fill="#1E72C6"/></g><g><path d="M71.6739,43.2047c0.0776,0.0496,0.1618,0.104,0.2517,0.1628         c0.1824,0.1186,0.3873,0.2549,0.6037,0.4041c0.6031,0.4158,1.2955,0.9314,1.8394,1.4395l0.2066-0.1193l0.4069-0.2349         c-0.1107-0.4428-0.2766-0.9366-0.5318-1.3831l-1.0603,0.1811l0.5097-0.6409c-0.0266-0.0033-0.531-0.0663-1.1702-0.1115         l0.1442,0.1395c0.0246,0.034,0.0132,0.0554-0.0138,0.071c-0.0284,0.0164-0.0739,0.0264-0.1133,0.0382         c-0.2062,0.0618-0.6556,0.1193-0.7746,0.1049C71.8681,43.2443,71.7689,43.227,71.6739,43.2047z" fill="#3887E5"/></g><g><path d="M72.3503,44.1686l0.0178,0.1494l1.992,0.8981l0.0087-0.005         c-0.5439-0.5082-1.2363-1.0237-1.8394-1.4395c0.0201,0.1342,0.0125,0.276-0.0452,0.4164L72.3503,44.1686z" fill="#DEE7F8"/></g><g><polygon fill="#9EB5DF" points="78.6659,44.2211 78.8847,44.5961 78.4735,44.9137 79.1558,44.908 79.5484,45.2313          79.754,44.8534 80.4071,44.7355 79.8501,44.507 79.8623,44.1119 79.3127,44.349        "/></g><g><polygon fill="#3A3A77" points="71.5134,44.0473 71.7202,44.5318 71.9773,44.5422 73.5237,45.699 74.36,45.2162          72.368,44.3181 72.3503,44.1686        "/></g><g><path d="M71.7536,44.6097c-0.2421,0.0328-0.4865,0.0369-0.7178,0.0249         c0.7158,0.3505,1.6016,0.7529,2.4779,1.0701l0.01-0.0057l-1.5464-1.1567l-0.2571-0.0105L71.7536,44.6097z" fill="#DEE7F8"/></g><g><path d="M70.1553,44.1881c0.0134,0.0238,0.0261,0.0477,0.0387,0.0718         c0.0356,0.0683,0.0327,0.1387-0.0272,0.2105c-0.1025,0.1336-0.0779,0.1753-0.1828,0.3089         c-0.0195,0.0244-0.0376,0.0418-0.0571,0.053c-0.0356,0.0205-0.0755,0.0205-0.1355,0.0052         c-0.0856-0.0284-0.1713-0.0566-0.2569-0.0848c0.076,0.3681,0.1822,0.658,0.1878,0.6732l1.1081-0.2931l-0.3173,0.6143         c0.7712,0.1486,1.6231,0.2463,2.3863,0.3109l0.4066-0.2333l0.2078-0.12c-0.8763-0.3172-1.7621-0.7196-2.4779-1.0701         c-0.257-0.1258-0.492-0.2449-0.6969-0.3511C70.2747,44.2504,70.2133,44.2184,70.1553,44.1881z" fill="#3887E5"/></g><g><polygon fill="#C97F94" points="76.9474,45.2133 77.1649,45.5891 76.755,45.9059 77.4372,45.9002 77.8299,46.2235          78.0354,45.8456 78.6872,45.7285 78.1316,45.4992 78.1425,45.1048 77.5942,45.3412        "/></g><g><polygon fill="#C97F94" points="75.2276,46.2062 75.4463,46.5813 75.0364,46.8981 75.7187,46.8923 76.1113,47.2157          76.3156,46.8385 76.9687,46.7206 76.4118,46.4922 76.424,46.097 75.8757,46.3334        "/></g><g><path d="M69.2938,44.6729l-1.525,1.6174l2.3564,1.3694l2.7741-1.6016         c-0.7631-0.0646-1.6151-0.1623-2.3863-0.3109l0.3173-0.6143l-1.1081,0.2931c-0.0056-0.0153-0.1118-0.3052-0.1878-0.6732         C69.4541,44.7262,69.3738,44.6996,69.2938,44.6729z" fill="#1E72C6"/></g><g><polygon fill="#C97F94" points="73.5091,47.1984 73.7278,47.5735 73.3179,47.8903 73.9989,47.8853 74.3928,48.2079          74.5971,47.8307 75.2502,47.7128 74.6933,47.4844 74.7054,47.0892 74.1571,47.3256        "/></g><g><polygon fill="#C97F94" points="71.7905,48.1906 72.0092,48.5657 71.5981,48.8832 72.2803,48.8775 72.673,49.2008          72.8785,48.8229 73.5316,48.7051 72.9747,48.4766 72.9869,48.0814 72.4373,48.3185        "/></g><g><polygon fill="#B6CBEA" points="76.7143,50.4797 77.2138,50.77 85.4768,45.9993 84.9773,45.7091        "/></g><g><polygon fill="#B6CBEA" points="72.1801,50.5968 72.6783,50.8863 83.3169,44.7441 82.8187,44.4546        "/></g><g><polygon fill="#B6CBEA" points="73.2594,51.224 73.7589,51.5143 84.3975,45.3721 83.898,45.0818        "/></g></g></g></g><g><g enable-background="new    "><g><polygon fill="#2A2A5E" points="28.8419,58.8675 28.8448,59.8841 47.2312,70.5691 47.2283,69.5525       "/></g><g><polygon fill="#4C4A8B" points="47.2283,69.5525 47.2312,70.5691 61.8855,62.1084 61.8826,61.0918       "/></g><g><polygon fill="#DEE7F8" points="28.8419,58.8675 47.2283,69.5525 61.8826,61.0918 43.4962,50.4068       "/><polygon fill="#FFFFFF" points="60.503,61.0898 43.495,51.206 30.2215,58.8694 47.2291,68.7533       "/></g></g><g><g enable-background="new    "><g><path d="M41.1945,57.1725c-0.1115,0.0644-0.1992,0.168-0.2563,0.3293         c-0.0039,0.0012-0.0075,0.0028-0.0107,0.0046c-0.0552,0.0318-0.0154,0.1508-0.0647,0.1793         c-0.1092,0.0014-0.1397-0.0726-0.2364-0.0826c-0.2475,0.1426,0.5478,1.3067,1.2701,1.1014         c0.3923-0.0093,0.6582,0.0743,0.832,0.2695c0.1438,0.0119,0.2853,0.0177,0.4217,0.0166         c0.3923-0.0032,0.7426-0.0637,0.9848-0.2035c0.1326-0.0766,0.2242-0.172,0.2811-0.2799         c0.0206-0.0391,0.0367-0.0798,0.0485-0.1219c-0.0976-0.034-0.1892-0.0749-0.2758-0.1233         c-0.1138-0.0632-0.1792-0.1214-0.1774-0.2127c0.008-0.3197-0.5162-0.9791-0.5438-1.0138         C42.6582,57.3799,41.6912,56.8857,41.1945,57.1725z" fill="#ECB4BF"/></g><g><polygon fill="#DEE7F8" points="44.491,59.0687 44.4929,59.0688 44.493,59.0683        "/></g><g><rect fill="#DEE7F8" height="0.002" width="0" x="44.4919" y="59.0675"/></g><g><path d="M43.1501,58.9906c0.5379,0.0546,1.2987,0.0769,1.3408,0.0781         c0.0012-0.0113-0.0205-0.2895-0.075-0.5615c-0.0569,0.108-0.1485,0.2034-0.2811,0.2799         C43.8927,58.9269,43.5424,58.9875,43.1501,58.9906z" fill="#D390A1"/></g><g><polygon fill="#DEE7F8" points="44.4935,59.07 44.4939,59.0689 44.493,59.0688        "/></g><g><path d="M44.4644,58.3853c-0.0118,0.0421-0.0279,0.0828-0.0485,0.1219         c0.0545,0.272,0.0762,0.5502,0.077,0.5611l0.8378,0.1219l0.1338,0.0194c0.0577-0.1404,0.0653-0.2822,0.0452-0.4164         c-0.147-0.1014-0.2887-0.1968-0.4217-0.2848c-0.0689-0.0041-0.1382-0.0126-0.2073-0.0231         C44.7309,58.4629,44.5926,58.43,44.4644,58.3853z" fill="#B6CBEA"/></g><g><path d="M42.7284,58.974c0.0059,0.0051,0.007,0.0053,0.0073,0.0051         c-0.0001-0.0008,0.0009-0.0002,0.0026,0.0028c0.0089,0.0101,0.0174,0.0202,0.0259,0.0304         c0.1407,0.0759,0.3296,0.1764,0.5552,0.2929c0.205,0.1062,0.4402,0.2253,0.6972,0.3512         c0.2313,0.0119,0.4756,0.0078,0.7175-0.025l-0.0333-0.0777L44.4935,59.07c-0.0447-0.0025-0.8055-0.0248-1.3434-0.0794         C43.0137,58.9917,42.8722,58.9859,42.7284,58.974z" fill="#B6CBEA"/></g><g><path d="M46.3694,58.6772l1.0615-0.1818c0.2552,0.4465,0.4211,0.9403,0.5315,1.3818l2.7717-1.6002         l-2.3564-1.3694l-2.4524,0.7699c0.061,0.0736,0.0712,0.1544,0.1062,0.2324c0.0068,0.0147,0.0149,0.0285,0.0248,0.0413         c0.4739,0.0406,0.8066,0.0822,0.8241,0.0844L46.3694,58.6772z" fill="#1E72C6"/></g><g><path d="M45.0881,58.5084c0.1331,0.088,0.2747,0.1834,0.4217,0.2848         c0.6031,0.4158,1.2955,0.9314,1.8394,1.4395l0.2066-0.1193l0.4069-0.2349c-0.1107-0.4428-0.2766-0.9366-0.5318-1.3831         l-1.0615,0.1818l0.5109-0.6416c-0.0175-0.0022-0.3502-0.0438-0.8241-0.0844c0.045,0.0591,0.1231,0.0968,0.2485,0.1045         c0.1116,0.0072,0.2245,0.0108,0.3373,0.0158c-0.01,0.0057-0.0199,0.0115-0.0299,0.0173         c-0.0072,0.0045-0.0145,0.009-0.022,0.0133c-0.0198,0.0114-0.0411,0.0218-0.0663,0.0291         c-0.3118,0.0956-0.6275,0.1875-0.9405,0.2809c-0.0075,0.0129-0.0191,0.0229-0.0335,0.0312         c-0.0216,0.0125-0.0494,0.021-0.0785,0.0292C45.3451,58.509,45.217,58.5162,45.0881,58.5084z" fill="#3887E5"/></g><g><path d="M45.3308,59.1902l0.0178,0.1494l1.992,0.8981l0.0087-0.005         c-0.544-0.5081-1.2364-1.0237-1.8394-1.4395c0.0201,0.1342,0.0125,0.276-0.0452,0.4164L45.3308,59.1902z" fill="#DEE7F8"/></g><g><polygon fill="#9EB5DF" points="51.6465,59.2427 51.8652,59.6177 51.4541,59.9353 52.1363,59.9295 52.5289,60.2529          52.7345,59.875 53.3863,59.7578 52.8307,59.5286 52.8416,59.1342 52.2933,59.3706        "/></g><g><path d="M39.6622,56.1742c-0.1549,0.0894-0.2871,0.1933-0.4176,0.3044         c-0.779,0.666-0.1171,1.4154,0.0157,1.6252c0.0677,0.1085,0.2334,0.1803,0.4056,0.2385         c0.0903,0.0309,0.187,0.0553,0.2773,0.0848c0.1722,0.0568,0.2646,0.148,0.3335,0.2515         c0.0443,0.0675,0.0935,0.1337,0.1465,0.1976c0.1577,0.1897,0.4451,0.263,0.7835,0.2924         c0.1016,0.0086,0.2083,0.0144,0.2975,0.0517c0.125,0.0539,0.2102,0.1207,0.222,0.2141         c0.0071,0.0546,0.0217,0.1092,0.0288,0.1638c0.0173,0.1459,0.1412,0.2402,0.3343,0.2926         c0.0589,0.016,0.1241,0.028,0.1948,0.0365c0.1216,0.0144,0.2098,0.0251,0.2747,0.0386         c0.1679,0.0349,0.1799,0.0888,0.211,0.2753c0.009,0.046,0.0425,0.0589,0.0953,0.0285         c0.0748-0.0478,0.1147-0.0996,0.1584-0.1477c0.1311-0.1401-0.3255-0.3449-0.2155-0.4915         c0.2161-0.2147,0.1241-0.4178-0.0436-0.6183c-0.0085-0.0102-0.0171-0.0203-0.0259-0.0304         c-0.1838-0.203-0.4496-0.2867-0.8419-0.2774c-0.7224,0.2053-1.5176-0.9588-1.276-1.0983         c0.1026,0.007,0.1331,0.081,0.2423,0.0795c0.0494-0.0285,0.0096-0.1474,0.0647-0.1793         c0.0678-0.166,0.1555-0.2696,0.267-0.334c0.4967-0.2868,1.4637,0.2075,2.2729-0.137         c0.0276,0.0347,0.5518,0.6941,0.5438,1.0138c-0.0018,0.0913,0.0636,0.1494,0.1774,0.2127         c0.0865,0.0484,0.1782,0.0893,0.2758,0.1233c0.1281,0.0448,0.2664,0.0777,0.4164,0.1001         c0.0692,0.0105,0.1384,0.0189,0.2073,0.0231c0.1289,0.0077,0.257,0.0005,0.3832-0.036         c0.0291-0.0082,0.0569-0.0167,0.0785-0.0292c0.0143-0.0083,0.0259-0.0183,0.0335-0.0312         c0.3131-0.0934,0.6287-0.1853,0.9405-0.2809c0.0252-0.0073,0.0466-0.0176,0.0663-0.0291         c0.0075-0.0043,0.0148-0.0088,0.022-0.0133c0.01-0.0057,0.0199-0.0115,0.0299-0.0173         c-0.1129-0.005-0.2257-0.0086-0.3373-0.0158c-0.1254-0.0077-0.2035-0.0454-0.2485-0.1045         c-0.0098-0.0128-0.018-0.0266-0.0248-0.0413c-0.035-0.078-0.0452-0.1588-0.1062-0.2324         c-0.0137-0.0166-0.03-0.0328-0.0498-0.0485c-0.1124-0.0898-0.2535-0.1387-0.4395-0.1487         c-0.0905-0.005-0.1823-0.0108-0.2715-0.0165c-0.284-0.018-0.4137-0.0876-0.4675-0.25         c-0.028-0.0812-0.0511-0.1638-0.0953-0.2414c-0.0934-0.1581-0.3062-0.2472-0.5676-0.3053         c-0.1115-0.0244-0.2218-0.051-0.3307-0.0798c-0.1994-0.0524-0.303-0.1559-0.393-0.2644         c-0.101-0.1193-0.2294-0.2242-0.4387-0.2881c-0.1152-0.0352-0.2416-0.0496-0.3643-0.0704         c-0.3222-0.0561-0.6318-0.1308-0.9703-0.1588c-0.5257-0.0431-0.9963,0.0496-1.451,0.1861         C39.9233,56.0409,39.7856,56.103,39.6622,56.1742z" fill="#2A2A5E"/></g><g><polygon fill="#3A3A77" points="44.4939,59.0689 44.7009,59.5537 44.9579,59.5638 46.503,60.7213 47.3405,60.2378          45.3486,59.3397 45.3308,59.1902        "/></g><g><path d="M44.7342,59.6314c-0.2419,0.0328-0.4862,0.0369-0.7175,0.025         c0.7158,0.3504,1.6015,0.7528,2.4776,1.07l0.0087-0.005l-1.5452-1.1575l-0.257-0.0102L44.7342,59.6314z" fill="#DEE7F8"/></g><g><path d="M42.7643,59.0123c0.1677,0.2006,0.2596,0.4036,0.0436,0.6183         c-0.11,0.1466,0.3466,0.3514,0.2155,0.4915c-0.0437,0.0481-0.0836,0.0999-0.1484,0.1415         c-0.0034,0.0022-0.0068,0.0043-0.01,0.0062c-0.0527,0.0304-0.0862,0.0175-0.0953-0.0285         c-0.0312-0.1865-0.0431-0.2404-0.211-0.2753c0.069,0.2766,0.1403,0.4713,0.1441,0.4815l1.1081-0.2931l-0.3173,0.6143         c0.7712,0.1486,1.6231,0.2463,2.3863,0.3109l0.4054-0.2326l0.2091-0.1207c-0.8761-0.3172-1.7619-0.7195-2.4776-1.07         c-0.2571-0.1259-0.4923-0.245-0.6972-0.3512C43.0939,59.1887,42.905,59.0882,42.7643,59.0123z" fill="#3887E5"/></g><g><polygon fill="#9EB5DF" points="49.9279,60.2349 50.1454,60.6107 49.7355,60.9275 50.4177,60.9218 50.8104,61.2451          51.0159,60.8672 51.6678,60.75 51.1109,60.5216 51.1231,60.1264 50.5747,60.3628        "/></g><path d="M42.3938,53.4302l5.9838,3.4775l-2.4524,0.7698c-0.0137-0.0166-0.03-0.0328-0.0498-0.0485        c-0.1124-0.0898-0.2534-0.1387-0.4395-0.1488c-0.0905-0.005-0.1823-0.0108-0.2716-0.0165        c-0.2839-0.018-0.4138-0.0877-0.4675-0.2501c-0.028-0.0811-0.0511-0.1638-0.0953-0.2414        c-0.0934-0.1581-0.3063-0.2472-0.5676-0.3054c-0.1115-0.0244-0.2217-0.0509-0.3308-0.0798        c-0.1993-0.0524-0.303-0.1559-0.393-0.2644c-0.101-0.1192-0.2294-0.2241-0.4387-0.2881        c-0.1152-0.0352-0.2416-0.0496-0.3643-0.0704c-0.3222-0.0561-0.6318-0.1308-0.9703-0.1588        c-0.5256-0.043-0.9962,0.0496-1.451,0.1862c-0.1626,0.0494-0.3003,0.1114-0.4237,0.1826        c-0.1549,0.0895-0.2871,0.1933-0.4176,0.3044c-0.779,0.666-0.1171,1.4155,0.0157,1.6252        c0.0677,0.1085,0.2334,0.1803,0.4056,0.2385c0.0903,0.0309,0.187,0.0554,0.2773,0.0848        c0.1721,0.0568,0.2646,0.148,0.3335,0.2514c0.0443,0.0676,0.0935,0.1337,0.1465,0.1976        c0.1577,0.1897,0.4451,0.263,0.7835,0.2925c0.1016,0.0087,0.2083,0.0144,0.2975,0.0518        c0.125,0.0539,0.2101,0.1207,0.222,0.2141c0.0071,0.0545,0.0217,0.1092,0.0288,0.1638        c0.0173,0.1459,0.1412,0.2402,0.3342,0.2926l-1.3399,1.421l-5.9839-3.4774L42.3938,53.4302z" fill="#A6C2FF"/><g><polygon fill="#C97F94" points="48.2081,61.2278 48.4269,61.6029 48.017,61.9197 48.6992,61.914 49.0918,62.2373          49.2961,61.8601 49.9493,61.7422 49.3923,61.5138 49.4045,61.1186 48.8562,61.355        "/></g><g><path d="M42.0892,59.8909l-1.3399,1.421l2.3564,1.3694l2.7742-1.6017         c-0.7632-0.0646-1.6151-0.1623-2.3863-0.3109l0.3173-0.6143l-1.1081,0.2931c-0.0038-0.0102-0.0751-0.2049-0.1441-0.4815         c-0.0649-0.0135-0.1531-0.0242-0.2747-0.0386C42.2133,59.9189,42.1481,59.9068,42.0892,59.8909z" fill="#1E72C6"/></g><g><polygon fill="#C97F94" points="46.4896,62.22 46.7083,62.5951 46.2972,62.9126 46.9794,62.9069 47.3721,63.2302          47.5776,62.8523 48.2307,62.7345 47.6738,62.506 47.686,62.1108 47.1364,62.3479        "/></g><g><polygon fill="#C97F94" points="44.771,63.2122 44.9885,63.588 44.5787,63.9048 45.2609,63.8991 45.6535,64.2224          45.8591,63.8445 46.5109,63.7274 45.9553,63.4982 45.9662,63.1037 45.4179,63.3401        "/></g><g><polygon fill="#B6CBEA" points="49.6949,65.5013 50.1944,65.7916 58.4573,61.0209 57.9578,60.7307        "/></g><g><path d="M45.1607,65.6184l0.4982,0.2895l10.6385-6.1422l-0.4982-0.2895         C48.7437,63.5497,52.5284,61.3646,45.1607,65.6184z" fill="#B6CBEA"/></g><g><polygon fill="#B6CBEA" points="46.24,66.2456 46.7395,66.5359 57.378,60.3937 56.8785,60.1034        "/></g></g></g></g><g><g enable-background="new    "><g><polygon fill="#2A2A5E" points="33.4678,44.8973 33.4707,45.9138 51.8571,56.5988 51.8542,55.5823       "/></g><g><polygon fill="#4C4A8B" points="51.8542,55.5823 51.8571,56.5988 66.5115,48.1381 66.5086,47.1216       "/></g><g><polygon fill="#DEE7F8" points="33.4678,44.8973 51.8542,55.5823 66.5086,47.1216 48.1222,36.4366       "/><polygon fill="#FFFFFF" points="65.1286,47.1196 48.121,37.2358 34.8476,44.8992 51.8551,54.7831       "/></g></g><g><g enable-background="new    "><g><path d="M43.5923,42.1476c-0.2016,0.1164-0.3685,0.2512-0.5016,0.4015         c-0.3171,0.3578-0.3538,0.7228-0.0483,1.0907c0.2661,0.3219,0.6941,0.5302,1.2952,0.6157         c0.034,0.0064,0.0538,0.0269,0.0917,0.0172c0.0131-0.0035,0.0225-0.0072,0.029-0.0109         c0.0307-0.0177-0.0027-0.0378-0.02-0.0573c-0.2947-0.314-0.3623-0.6416-0.1817-0.985         c0.0335-0.0649,0.0534-0.1023,0.0848-0.1204c0.0426-0.0246,0.1061-0.0133,0.2532,0.0141         c0.5485,0.0726,0.8137-0.051,1.075-0.2019c0.0233-0.0135,0.0466-0.0271,0.07-0.0409c0.0171-0.0099,0.0342-0.02,0.0515-0.03         c0.287-0.1657,0.6194-0.3339,1.3433-0.2912c0.1277,0.0079,0.1631,0.1006,0.3097,0.0733         c0.072-0.013,0.1351,0.0194,0.1907,0.0489c0.1632,0.0862,0.2358,0.1904,0.1917,0.3176         c-0.0151,0.0431-0.0092,0.084,0.0117,0.125c0.0626,0.1157,0.1314,0.2292,0.2151,0.3398         c0.0063,0.0092,0.0116,0.0201,0.0207,0.0284c0.0122,0.0112,0.0312,0.0175,0.0684,0.0076         c0.0781-0.2184-0.0013-0.4275-0.144-0.6272c-0.2043-0.2874-0.4968-0.5453-0.9063-0.7501         c-0.5207-0.2608-1.1138-0.4339-1.8197-0.4261c-0.48,0.005-0.9049,0.1243-1.2966,0.2788         C43.8364,42.0195,43.7086,42.0805,43.5923,42.1476z" fill="#A0533F"/></g><g><path d="M44.3415,43.0991c-0.0313,0.0181-0.0513,0.0556-0.0848,0.1204         c-0.1806,0.3434-0.113,0.671,0.1817,0.985c0.0173,0.0196,0.0506,0.0396,0.02,0.0573         c-0.0065,0.0038-0.016,0.0074-0.029,0.0109c-0.0379,0.0096-0.0576-0.0109-0.0874-0.0165         c-0.0033,0.0031-0.0064,0.0061-0.0093,0.0093c-0.0786,0.087,0.0521,0.2148,0.2899,0.2867         c0.2221,0.0658,0.6221,0.1078,0.7391,0.0433c0.5478,0.137,1.1609,0.2224,1.6782,0.1951         c0.324-0.0172,0.6104-0.0786,0.8174-0.1981c0.1892-0.1092,0.295-0.2568,0.3356-0.4243         c0.0197-0.0813,0.0241-0.1672,0.0151-0.2558c-0.0055-0.0546-0.016-0.11-0.0312-0.1661         c-0.0237-0.0875-0.0586-0.1762-0.1027-0.2643c-0.0091-0.0083-0.0144-0.0192-0.0207-0.0284         c-0.0837-0.1106-0.1525-0.2242-0.2151-0.3398c-0.0209-0.0409-0.0268-0.0819-0.0117-0.125         c0.0441-0.1272-0.0285-0.2314-0.1917-0.3176c-0.0557-0.0295-0.1188-0.0618-0.1907-0.0489         c-0.1466,0.0273-0.182-0.0654-0.3097-0.0733c-0.7239-0.0427-1.0562,0.1255-1.3433,0.2912         c-0.0173,0.01-0.0344,0.02-0.0515,0.03c-0.0235,0.0138-0.0467,0.0274-0.07,0.0409c-0.2613,0.1508-0.5265,0.2745-1.075,0.2019         C44.4476,43.0859,44.3841,43.0746,44.3415,43.0991z" fill="#ECB4BF"/></g><g><path d="M47.0398,44.7907c0.0556,0.0227,0.1154,0.0484,0.1797,0.0778         c0.5154,0.0401,1.0681,0.0552,1.0972,0.056c-0.0017-0.0218-0.0331-0.4368-0.1239-0.7562         c-0.0406,0.1675-0.1464,0.315-0.3356,0.4243C47.6502,44.7121,47.3638,44.7735,47.0398,44.7907z" fill="#D390A1"/></g><g><path d="M48.208,43.9125c0.009,0.0886,0.0046,0.1746-0.0151,0.2558         c0.0908,0.3194,0.1222,0.7343,0.1239,0.7562l0.8358,0.1207l0.1346,0.0194c0.0582-0.1418,0.0656-0.2848,0.0448-0.4201         c-0.2267-0.1527-0.4337-0.2887-0.6033-0.3989C48.5201,44.1084,48.3408,43.995,48.208,43.9125z" fill="#B6CBEA"/></g><g><path d="M47.2196,44.8685c0.0451,0.0207,0.0924,0.0431,0.1421,0.0675         c0.336,0.1647,0.4454,0.3671,0.4427,0.5631c0.0083,0.0042,0.0165,0.0083,0.0249,0.0125         c0.2338,0.0125,0.4812,0.0088,0.7263-0.0245l-0.033-0.078l-0.2057-0.4846C48.2877,44.9237,47.7349,44.9086,47.2196,44.8685z" fill="#B6CBEA"/></g><g><path d="M45.3703,44.5904c-0.002,0.0014-0.0043,0.0028-0.0066,0.0041         c0.023,0.2064,0.1688,0.5933,0.8802,0.7998c0.0042,0.0012,0.0082,0.0024,0.0124,0.0036         c0.0142,0.004,0.0282,0.0081,0.042,0.0123c0.6509,0.1949,0.9054,0.5046,1.0023,0.6876         c0.0476,0.09,0.0569,0.1464,0.0573,0.1494c0.0053-0.0044,0.1063-0.0873,0.2152-0.2218         c0.1128-0.1394,0.2283-0.3297,0.2311-0.5263c0.0028-0.196-0.1066-0.3984-0.4427-0.5631         c-0.0497-0.0244-0.097-0.0468-0.1421-0.0675c-0.0644-0.0294-0.1241-0.0552-0.1797-0.0778         C46.5225,44.8181,45.9095,44.7327,45.3703,44.5904z" fill="#A0533F"/></g><g><path d="M48.1768,43.7464c0.0152,0.0561,0.0257,0.1115,0.0312,0.1661         c0.1328,0.0825,0.3121,0.1959,0.5207,0.333c0.1695,0.1102,0.3766,0.2463,0.6033,0.3989         c0.6955,0.4683,1.5766,1.0935,2.1341,1.6143l0.2066-0.1193l0.4057-0.2342c-0.11-0.4438-0.5696-1.1069-0.8248-1.5533         l-1.0616,0.1803l0.5109-0.6401c-0.0412-0.0051-0.8232-0.1029-1.654-0.1398C48.746,43.7388,48.4421,43.7341,48.1768,43.7464z" fill="#3A3A77"/></g><g><path d="M46.5254,46.304l0.7753-0.2061c-0.0969-0.183-0.3514-0.4927-1.0023-0.6876         C46.3657,45.8686,46.5174,46.2822,46.5254,46.304z" fill="#3A3A77"/></g><g><polygon fill="#9EB5DF" points="55.762,45.2694 55.9808,45.6445 55.5709,45.9613 56.2531,45.9556 56.6457,46.2789          56.8501,45.9017 57.5032,45.7838 56.9463,45.5554 56.9584,45.1602 56.4101,45.3966        "/></g><g><polygon fill="#1E72C6" points="48.3168,44.9245 48.5224,45.4091 48.7792,45.4195 50.6198,46.7473 51.4574,46.2638          49.1699,45.1954 49.1526,45.0452        "/></g><g><path d="M47.8292,45.5116c0.8071,0.4039,1.8836,0.9155,2.782,1.2407l-0.2091,0.1207l1.2705-0.7336         l-0.2066,0.1193c-0.5574-0.5207-1.4386-1.146-2.1341-1.6143c0.0208,0.1353,0.0134,0.2784-0.0448,0.4201l-0.1346-0.0194         l0.0173,0.1502l2.2875,1.0684l-0.8375,0.4835l-1.8407-1.3278l-0.2567-0.0104l0.033,0.078         C48.3104,45.5203,48.0629,45.5241,47.8292,45.5116z" fill="#DEE7F8"/></g><g><path d="M47.5732,46.0254l0.0602-0.016l-0.316,0.615c0.7699,0.1493,1.9143,0.4169,2.678,0.4819l0.4066-0.2333         l0.2091-0.1207c-0.8984-0.3252-1.9749-0.8369-2.782-1.2407c-0.0084-0.0042-0.0166-0.0083-0.0249-0.0125         C47.8015,45.6958,47.686,45.886,47.5732,46.0254z" fill="#3A3A77"/></g><path d="M46.5106,39.4562l5.6909,3.3072l-3.1525,0.9889c-0.3029-0.0135-0.6068-0.0182-0.8721-0.0059        c-0.0237-0.0875-0.0586-0.1762-0.1027-0.2643c0.0122,0.0112,0.0312,0.0175,0.0684,0.0076        c0.0781-0.2184-0.0013-0.4275-0.144-0.6273c-0.2043-0.2874-0.4968-0.5452-0.9063-0.75        c-0.5207-0.2609-1.1138-0.434-1.8196-0.4261c-0.4801,0.005-0.905,0.1243-1.2965,0.2788        c-0.1396,0.0543-0.2674,0.1154-0.3836,0.1825c-0.2017,0.1164-0.3685,0.2512-0.5016,0.4015        c-0.3171,0.3578-0.3538,0.7228-0.0483,1.0907c0.2661,0.3218,0.6941,0.5302,1.2902,0.6257        c-0.0786,0.0869,0.0521,0.2148,0.2898,0.2867c0.2221,0.0659,0.6221,0.1077,0.7391,0.0433        c0.0251,0.2053,0.1709,0.5921,0.8823,0.7988l-1.6708,1.7732l-5.6909-3.3072L46.5106,39.4562z" fill="#A6C2FF"/><g><polygon fill="#C97F94" points="54.0435,46.2616 54.2622,46.6367 53.8523,46.9535 54.5333,46.9485 54.9272,47.2711          55.1315,46.8939 55.7846,46.7761 55.2277,46.5476 55.2399,46.1524 54.6915,46.3888        "/></g><g><polygon fill="#C97F94" points="52.3249,47.2538 52.5437,47.6289 52.1325,47.9464 52.8148,47.9407 53.2074,48.264          53.413,47.8861 54.066,47.7683 53.5092,47.5398 53.5213,47.1446 52.9718,47.3817        "/></g><g><path d="M46.2439,45.3943l-1.6708,1.7732l2.6494,1.5397l2.7729-1.6009         c-0.7637-0.065-1.9081-0.3326-2.678-0.4819l0.316-0.615l-0.0602,0.016c-0.1089,0.1345-0.2099,0.2174-0.2152,0.2218         c-0.0005-0.003-0.0097-0.0594-0.0573-0.1494l-0.7753,0.2061c-0.008-0.0218-0.1596-0.4353-0.227-0.8937         c-0.0138-0.0041-0.0278-0.0083-0.042-0.0123C46.2521,45.3968,46.2481,45.3956,46.2439,45.3943z" fill="#2A2A5E"/></g><g><polygon fill="#C97F94" points="50.6064,48.246 50.8239,48.6218 50.414,48.9386 51.0962,48.9329 51.4889,49.2562          51.6944,48.8783 52.3463,48.7612 51.7906,48.532 51.8015,48.1375 51.2532,48.3739        "/></g><g><polygon fill="#C97F94" points="48.8866,49.2389 49.1054,49.614 48.6955,49.9308 49.3777,49.9251 49.7703,50.2484          49.9746,49.8712 50.6277,49.7534 50.0708,49.5249 50.083,49.1297 49.5347,49.3661        "/></g><g><polygon fill="#B6CBEA" points="53.8117,51.5273 54.3112,51.8176 62.5741,47.0469 62.0746,46.7567        "/></g><g><polygon fill="#B6CBEA" points="49.2762,51.6451 49.7745,51.9346 60.4142,45.7918 59.916,45.5022        "/></g><g><polygon fill="#B6CBEA" points="50.3555,52.2723 50.855,52.5626 61.4948,46.4197 60.9953,46.1294        "/></g></g><g><path d="M50.192,44.5322l1.0616-0.1803c0.2552,0.4465,0.7148,1.1095,0.8244,1.5521l2.7729-1.6009        l-2.6494-1.5397l-3.1525,0.9889c0.8307,0.0369,1.6128,0.1347,1.654,0.1398L50.192,44.5322z" fill="#2A2A5E"/></g></g></g></g><path d="M82.0301,83.5989c0.0031-0.0015-0.623,1.42-1.579,0.9711c-0.1876-0.0876-0.3784-0.1737-0.5866-0.2466    c-0.3304-0.1159-0.8441-0.2823-1.2905-0.3761c-0.2514-0.0528-0.5052,0.0755-0.6238,0.3032    c-0.1079,0.2076-0.2848,0.3711-0.4988,0.4652c-0.6369,0.2796-1.2113,0.5041-2.1144,0.6702    c-2.9588,0.5451-3.28,1.378-4.8655,1.7945c-0.2192-0.1315-2.5536-0.6678-4.9917-1.1654c-0.5201-0.1038-1.7478-0.813-2.1771-0.4764    c0,0-0.027,0.0177,0.0219,0.0437c-0.1875-0.0078-0.3293,0.0472-0.3655,0.0808l-0.694-0.1507    c-1.486-1.5538-4.9463-2.9118-7.0711-3.3749c-1.2892-0.2802-2.2068-0.2902-2.6534-0.0773L51.925,82.349    c-0.4497,0.2144-0.4232,0.6542,0.2027,1.2704c1.2392,1.2238,4.3489,2.6718,6.9325,3.2345    c1.2944,0.2826,2.212,0.2926,2.6586,0.0796c0.4242-0.2473,0.9446-0.3066,0.9122-0.735l0.2909,0.0628    c0.6975,0.7812,3.4067,0.2374,5.0081,1.9246c-0.2191,0.6191,0.4006,0.5823,1.1093,1.448c0,0,0.0188,0.0056,0.0534,0.0189    l-0.405,0.0897c-0.1116,0.0236-0.2769,0.0041-0.4285-0.0513c-0.3136-0.1159-0.846-0.295-1.0304-0.2413    c-0.1778,0.0504-0.8554,0.2159-1.1986,0.4044l-0.0033,0.0015c-0.1705-0.0218-0.3634-0.033-0.5384-0.0086    c-0.3203,0.0445-0.8167-0.1023-0.0007,0.433c0.1857,0.123,0.4774,0.2985,0.7785,0.5631c0.3905,0.3401,1.0779,0.6516,1.7891,0.7893    l0.0052,0.0024c0.7973,0.4118,1.951,0.6681,3.0687,0.5135c0.2376-0.0345,0.4279-0.1153,0.5993-0.202    c0.4984-0.2525,1.6097-0.2218,2.4819,0.2425c0.0924,0.0493,0.3392,0.0251,0.2913-0.0307    c-0.4263-0.4657-1.3059-0.8822-2.3091-1.0383c0.2155-0.0114,0.5941-0.1402,0.5754-0.3283    c0.7822-0.4321,2.9963-1.5297,4.9671-1.9285c0.069-0.0133,0.1276-0.0316,0.1759-0.0546c0.0083,0.0012,0.0031-0.0015,0.0031-0.0015    c0.659-0.0684,1.5136-0.3333,2.406-1.3686c0.8461-0.9692,3.7033-3.5362,5.0543-4.3576c-0.1592-0.2425-0.4364-0.5068-0.5683-0.5301    C82.7483,82.1865,81.967,83.624,82.0301,83.5989z" fill="#E1E9F4"/><g><g><g><g><g><path d="M98.0787,67.7812c-1.45,0.8701-3.6455,1.2924-4.6655,2.0922c-1.62,1.2803-2.75,1.4502-3.5,1.6499         c-0.89,0.3203-2.73,1.2402-3.64,2.0703c-0.05,0.0498-0.1,0.0898-0.16,0.1299c0.3,0.0498,0.62,0.1099,0.79,0.1802l0.73-0.2202         c0.13-0.04,0.32-0.0698,0.53-0.0801c0.44-0.02,0.82,0.0503,0.86,0.1401c0.02,0.0503-0.05,0.1001-0.17,0.1299l-1.04,0.3101         c0.25,0.0801,0.38,0.1602,0.33,0.21c-0.17,0.1602-2.13,0.6401-3.32,0.9302c-0.21,0.0601-0.41,0.1099-0.56,0.1802         c-0.87,0.3696-2.05,0.3496-2.05,0.3496l-0.91,0.2603c-0.12,0.0498-0.34,0.0898-0.59,0.1001h-0.17l-0.57,0.1699         c0.01,0.0098,0.02,0.0098,0.02,0.02c0.35,0.6797-1.62,1.9199-4.4,2.75c-1.4,0.4199-2.7401,0.6597-3.76,0.6997l-1.26,0.0703         c-3.6386,0.1759-1.9498-1.8737,2.46-3.1904c1.3799-0.4199,2.71-0.6597,3.73-0.71l1.16-0.0498         c0.81-0.0498,1.45,0.0098,1.8,0.1899l0.1801-0.0498c-0.02-0.0103-0.03-0.0303-0.04-0.04         c-0.02-0.0503,0.06-0.1099,0.21-0.1401c0.02-0.0098,0.04-0.02,0.07-0.02l4.62-1.3799c-0.26-0.0298-0.55-0.0801-0.78-0.1099         c-0.4,0.0298-0.67,0-0.67,0s-0.23,0.0498-0.53,0.1797c0,0-0.45,0.75-2.47,1.1001s-3.25,0.1401-3.18-0.1899         c0,0,0.06,0.0801,0.34,0.0898c0,0-0.35-0.0801,0.44-0.4097c-0.12,0-0.22,0-0.2599-0.0103c0,0-0.25-0.1099-0.15-0.23         c0.03-0.0298,0.02-0.0601,0.01-0.0898c-0.04-0.0503-1.7-0.3403-1.51-0.6099c0.13-0.1704,0.38-0.25,1.11-0.3901         c1.03-0.1899,1.67-0.27,2.4-0.3901c-0.01,0-0.02-0.0098-0.03-0.0098c0.54-0.0703,1.23-0.1504,1.68-0.2002         c0.06-0.02,0.1201-0.0498,0.19-0.0698c0.67-0.25,3.75-1.7603,3.75-1.7603s-0.15-0.3701,3.4901-1.6602         c1.15-0.4097,2.9649-1.2587,3.2849-1.3085c1.12-0.1499,3.1551-1.5314,4.355-1.6412c1.59-0.1299,0.8772,0.5069,1.51,0.5         C98.3259,67.3172,98.0987,67.7812,98.0787,67.7812z" fill="#E1E9F4"/></g></g></g></g></g><g><path d="M82.6421,83.2834l-1.3161-0.445c-0.9048,0.7735-1.3654,0.5271-2.517,0.5759     c-1.1351,0.0659-0.7733,0.675-0.7733,0.675c0.3353,0.3913,1.0957,0.6152,1.549,0.7189c0.2137,0.0488,0.4302,0.058,0.6494,0.0564     c1.1085-0.007,2.2068,0.4901,2.5396,0.0961C83.1357,84.5333,82.6421,83.2834,82.6421,83.2834z" fill="#2A2A5E"/><path d="M85.2428,81.4037l-1.3161-0.445c-0.9048,0.7735-1.3654,0.527-2.517,0.5758     c-1.1351,0.0659-0.7733,0.675-0.7733,0.675c0.3353,0.3913,1.0957,0.6152,1.549,0.7189c0.2137,0.0488,0.4302,0.058,0.6494,0.0564     c1.1085-0.007,2.2068,0.4901,2.5396,0.0961C85.7364,82.6536,85.2428,81.4037,85.2428,81.4037z" fill="#2A2A5E"/><path d="M82.3709,61.821c-0.5042,0.7463-1.0913,0.5552-1.4866,0.5898c-1.3869,0.1223-2.0952,1.4789-3.8428,1.4743     l0.0659,0.6918c0.2571-0.0055,0.485,0.04,0.683,0.1275c0.129-0.0964,0.269-0.1726,0.4254-0.2005     c0.62-0.1103,2.2953-0.4165,3.0467-0.5263c0.2917-0.0414,0.8661-0.3417,1.4554-0.7374L82.3709,61.821z" fill="#ECB4BF"/><g><g><g><g><g><g><g><g><g><g><g><g><g><path d="M82.706,84.1429c0.0287-0.0103,0.0551-0.017,0.0845-0.0282c0,0-0.0342-0.6924-0.0845-1.6292                  V84.1429z" fill="#2A2A5E"/><path d="M85.3038,75.0204c1.0221-3.9851,0.3121-4.9896-0.0801-5.6292                  c-0.0788-0.1285-1.3576,0.4197-2.5177,0.8094v4.5033c0.2599,0.923,0.4778,2.129,0.521,2.3004                  c0.2039,0.8099,0.1717,4.72,0.1717,4.72c0.7526,1.4295,2.0361,0.5707,2.0361,0.5707                  C85.7117,79.2621,84.5905,77.8014,85.3038,75.0204z" fill="#3A3A77"/><path d="M83.0084,74.1325c0.4886-0.7656,1.2675-2.3977,0.5427-4.2277                  c-1.3197,0.5662-2.7838,0.9673-3.8612,0.126c0,0-0.929,1.3235,0.2712,5.6554                  c0.3808,1.3751,0.4002,2.4833,0.4263,3.9087l0.0689,4.0592c0,0,0.6054,1.1231,2.3343,0.4601                  c0,0-0.1681-3.4057-0.3087-5.36c-0.0641-0.8904-0.0804-1.7857-0.0468-2.6779                  C82.4568,75.497,82.7436,74.5471,83.0084,74.1325z" fill="#4C4A8B"/></g></g></g></g></g></g></g></g></g></g></g></g><g><g><g><g><g><path d="M82.1076,61.5214c0.6045-0.3308,1.4445-0.6492,1.7489-0.7571           c0.8199-0.2901,1.4214,0.4368,1.4099,1.0163c-0.0098,0.5797-0.1154,0.9671-0.9346,1.2565           c-0.2685,0.0952-1.0806,0.2392-1.6866,0.3129C83.0555,62.2006,82.1122,61.5245,82.1076,61.5214z" fill="#9EB5DF"/></g></g></g></g><g><path d="M80.1795,57.4592c0.4086-0.3932,3.7751,0.9722,3.5917,1.8538        c-0.0802,0.3857-0.018,1.8732-0.2378,2.3775c0,0-0.5171,0.6603-1.8914,0.123l-0.2269-0.9929        c-0.0347-0.1518-0.157-0.2666-0.3102-0.2951c-0.3269-0.0607-0.8615-0.2016-0.9049-0.4782        C80.1399,59.6651,79.7709,57.8523,80.1795,57.4592z" fill="#ECB4BF"/></g><path d="M79.7729,62.5824c-0.0044-0.0613-0.0205-0.119-0.0415-0.1743c0.2253-0.174,0.1048-0.1937,0.1048-0.1937       c0.7412-0.2567,1.6555-0.8495,1.6555-0.8495s1.3184,0.2416,2.1174-0.695c0,0,1.5193-0.2846,1.5193,1.0556       c0,1.0917-0.3921,4.864,0.4082,8.0514c0.1447,0.5762-0.0832,1.1404-0.725,1.5753c-4.0606,2.7511-5.5776,0.8644-5.4242-0.2326       c0.0181-0.1291,0.0222-0.8043,0.0369-0.9366c0.0963-0.8639,0.0133-2.3999-0.2537-3.2264l-0.0176-0.5407       c-0.015-0.4629-0.1265-0.9272-0.3696-1.3172C79.2873,64.3887,79.8355,63.4546,79.7729,62.5824z" fill="#B6CBEA"/></g></g><g><g><g><g><path d="M71.741,59.1394c0.9669,0.5619,1.4515,1.2968,1.4536,2.0326l-0.0041-1.2279         c-0.0022-0.7358-0.4867-1.4707-1.4536-2.0326c-1.9373-1.1258-5.0959-1.128-7.0533,0.0021         c-0.9768,0.564-1.4669,1.3033-1.4705,2.0425c0.0014,0.4834,0.0028,0.7446,0.0041,1.228         c0.0037-0.7391,0.4937-1.4785,1.4705-2.0425C66.6451,58.0114,69.8038,58.0136,71.741,59.1394z" fill="#2A2A5E"/></g><g opacity="0.5"><path d="M64.6836,58.5792c-1.9536,1.1279-1.9601,2.9575-0.0229,4.0834         c1.9446,1.1301,5.1033,1.1323,7.0569,0.0044c1.9574-1.1301,1.9639-2.9597,0.0193-4.0898         C69.7997,57.4513,66.641,57.4491,64.6836,58.5792z" fill="#3887E5"/></g><g><path d="M72.2305,57.6269c2.2137,1.2864,2.2019,3.3705-0.0263,4.657         c-2.2282,1.2864-5.8228,1.2845-8.0365-0.0019c-2.2071-1.2826-2.2022-3.3668,0.026-4.6532         C66.4219,56.3422,70.0234,56.3442,72.2305,57.6269z M71.7176,62.0013c1.9574-1.1301,1.9639-2.9597,0.0193-4.0898         c-1.9373-1.1258-5.0959-1.128-7.0533,0.0021c-1.9536,1.1279-1.9602,2.9575-0.0229,4.0834         C66.6053,63.127,69.764,63.1292,71.7176,62.0013" fill="#6262AA"/></g><g><path d="M64.1677,62.2821c2.2137,1.2864,5.8083,1.2884,8.0365,0.002         c1.1191-0.6465,1.6774-1.4934,1.6771-2.3402c0.0001-0.0013,0.0018-0.0027,0.0018-0.0047l0.0037,1.1479         c0.0023,0.8475-0.5576,1.697-1.6789,2.3449c-2.2282,1.2864-5.8228,1.2844-8.0364-0.002         c-1.0973-0.6378-1.6479-1.4739-1.6502-2.3113l-0.0037-1.1479c0,0.0034,0.0036,0.0067,0.0039,0.0101         C62.5281,60.8149,63.0748,61.647,64.1677,62.2821z" fill="#2A2A5E"/></g></g></g><g><path d="M73.1667,62.051c-0.0913-0.053-0.2177-0.0456-0.3572,0.035c-0.2773,0.1601-0.5013,0.548-0.5004,0.8666       c0.0005,0.1583,0.0563,0.2697,0.1464,0.322l0.9364,0.5441c-0.0901-0.0524-0.146-0.1637-0.1464-0.322       c-0.0009-0.3187,0.223-0.7066,0.5004-0.8667c0.1395-0.0805,0.2659-0.088,0.3572-0.035L73.1667,62.051z" fill="#6262AA"/><g><g enable-background="new    "><path d="M74.3902,62.3025c-0.1432-0.0832-0.3415-0.0715-0.5604,0.055         c-0.4351,0.2512-0.7865,0.8598-0.785,1.3598c0.0007,0.2483,0.0883,0.4231,0.2297,0.5052l5.7198,3.324         c-0.1414-0.0822-0.229-0.2568-0.2297-0.5052c-0.0014-0.5,0.3499-1.1086,0.785-1.3598         c0.2189-0.1264,0.4173-0.1381,0.5605-0.055L74.3902,62.3025z" fill="#1E72C6"/><g><path d="M79.5495,65.6814c0.4351-0.2512,0.7888-0.0496,0.7902,0.4503          c0.0014,0.4999-0.35,1.1085-0.785,1.3597s-0.7888,0.0496-0.7902-0.4503C78.7631,66.5412,79.1144,65.9326,79.5495,65.6814z" fill="#6B9EF9"/></g></g></g></g></g><g><g><path d="M73.3158,64.1894c0.2067,0.1472,0.8486,0.4308,0.978,0.1433c0,0-0.0089-0.1309-0.2969-0.2216       c-0.2881-0.0907-0.3336-0.3774,0.0913-0.2555c0.2741,0.0822,0.5838,0.3604,0.7726,0.5512       c0.1235,0.1246,0.2809,0.2045,0.4538,0.2349c0.1774,0.031,0.3542,0.0656,0.53,0.1057c0.5173,0.1126,0.9846,0.3585,1.452,0.6044       c0.6431,0.3486,1.2946-0.6804,1.3258-0.7459c0,0,0.0437-0.1347,0.1725-0.4546c0.3163,0.2576,0.6044,0.0242,1.0167,0.1439       c0.1158,0.0401,0.19,0.0601,0.2453,0.0764c0.2077,0.1411-0.0036,0.8477,0.232,0.9419       c-0.4574,0.5264-0.9353,0.6994-1.6744,1.2078c-0.5033,0.35-1.1709,0.3529-1.6852,0.0079       c-0.5378-0.3591-1.5141-0.9757-1.9683-1.2613c-0.1525-0.0957-0.3277-0.1449-0.5077-0.1488       c-0.4887-0.0101-1.4758-0.1287-1.3514-0.9291C73.102,64.1899,73.1092,64.0419,73.3158,64.1894z" fill="#ECB4BF"/><path d="M81.0125,62.2211c-0.3968-0.4221-1.3973-0.1452-1.7809,0.6352       c-0.1423,0.2899-0.5205,1.1046-0.7217,1.7637c-0.0643,0.3011,1.4208,1.0391,1.6001,0.9533       c0.382-0.4764,0.9245-1.1684,1.05-1.4239C81.5436,63.3699,81.4106,62.6426,81.0125,62.2211z" fill="#9EB5DF"/></g></g><g><path d="M83.375,56.4682c0.9741-0.0819,1.9653,0.479,2.426,1.8266c0.0991,0.292,0.1098,0.6281,0.105,0.9622      c-0.0178,0.965,0.6711,1.9414,1.7512,1.8227c0.1156-0.0126,0.2298,0.2692,0.1335,0.3318      c-1.2195,0.7953-2.8983,0.4395-3.5401-1.4361c-0.1025-0.2938-0.1114-0.6348-0.11-0.9704      c0.011-0.6016-0.2538-1.2022-0.7153-1.5423c-0.1232-0.0906-0.2254-0.2453-0.2709-0.4208      C83.0788,56.7484,83.1753,56.485,83.375,56.4682z" fill="#A0533F"/><path d="M80.2051,56.7715c0.2605-0.0711,0.6427-0.1507,1.1466-0.3941c0.7741-0.3739,1.7582-0.282,2.3442,0.3676      l-0.0951,0.0313l0.4237,1.2876l0.1665-0.0547c0.0072,0.0991,0.0119,0.2003,0.0093,0.3078      c-0.0233,0.9388-0.0723,1.7218-0.2902,2.1088c-0.5189,0.922-2.133,0.3333-2.1206-0.7247      c0.0002-0.0121,0.0004-0.0244,0.0009-0.0367c0.0454-1.2323-0.2918-1.2077-0.4967-0.9853      c-0.2049,0.2225-0.0749,0.8546-0.2491,0.8622c-0.1741,0.0081-0.3626,0.0178-0.3923-0.2123      c-0.0296-0.2297-0.1033-0.6873-0.37-0.9449c-0.1702-0.1641-0.4808-0.3581-0.6118-0.7438      C79.539,57.2532,79.0647,57.0826,80.2051,56.7715z" fill="#A0533F"/></g></g><g><g><g><g><path d="M98.2466,38.9641l3.2548,7.1684c0.0538,0.1193,0.0294,0.2738-0.0857,0.4358        c-0.2315,0.3256-0.7432,0.5582-1.1431,0.5191c-0.2012-0.0196-0.3356-0.1043-0.39-0.225l-3.2548-7.1684        c0.0544,0.1207,0.1888,0.2054,0.39,0.225c0.3999,0.039,0.9116-0.1936,1.1431-0.5191        C98.2761,39.238,98.3004,39.0834,98.2466,38.9641z" fill="#1E72C6"/></g><g><path d="M98.1609,39.3999c-0.2311,0.3256-0.743,0.5581-1.143,0.5191        c-0.4001-0.039-0.5363-0.3351-0.3041-0.6603c0.2311-0.3256,0.7429-0.5581,1.143-0.5191        C98.2565,38.7778,98.3927,39.074,98.1609,39.3999z" fill="#6B9EF9"/></g></g><g><g><path d="M96.196,37.7554l0.7807,1.7191c0.0294,0.0653,0.102,0.111,0.2107,0.1216        c0.2159,0.0211,0.4923-0.1045,0.6173-0.2805c0.0622-0.0872,0.0753-0.1706,0.0462-0.2351l-0.7819-1.7216L96.196,37.7554z" fill="#2A2A5E"/></g></g><g><g><path d="M93.0349,38.9749l1.6925,0.1889c0.8672,0.0967,1.7971-0.3821,2.5816-1.4557        c1.5612-2.1324,1.9614-5.8096,0.8921-8.2136c-0.5316-1.1919-1.3228-1.8469-2.1783-1.9431l-1.6914-0.1866        c0.8544,0.0937,1.648,0.7478,2.1773,1.9408c1.0693,2.404,0.669,6.0811-0.8911,8.2159        C94.832,38.5928,93.9021,39.0715,93.0349,38.9749z" fill="#6262AA"/></g><g><path d="M97.6993,29.4097c1.1015,2.4073,0.7385,6.1104-0.8091,8.2741        c-1.5457,2.1611-3.6923,1.9666-4.7938-0.4407c-1.1015-2.4073-0.7385-6.1104,0.8072-8.2715        C94.4513,26.8079,96.5978,27.0024,97.6993,29.4097z" fill="#A6C2FF"/></g><g><path d="M91.0766,37.4565c0.5838,1.3169,1.4594,2.0375,2.3993,2.1421l1.1771,0.1462        c-0.9422-0.1036-1.8166-0.8275-2.3993-2.1421c-1.1792-2.6476-0.7389-6.6986,0.9798-9.0476        c0.8642-1.1822,1.8894-1.7084,2.8438-1.602l-1.1771-0.1462c-0.9545-0.1065-1.9786,0.422-2.8438,1.6019        C90.3387,30.7602,89.8975,34.8089,91.0766,37.4565z" fill="#6262AA"/></g><g><path d="M98.4771,29.0943c1.1777,2.6488,0.7383,6.6991-0.9807,9.0485        c-1.719,2.3494-4.0666,2.1081-5.2443-0.5407c-1.1769-2.647-0.7376-6.6974,0.9814-9.0467S97.3002,26.4473,98.4771,29.0943z         M97.3094,37.7086c1.5601-2.1323,1.9601-5.8097,0.8911-8.214c-1.0682-2.4024-3.1999-2.6199-4.7601-0.4876        c-1.5601,2.1323-1.96,5.8098-0.8919,8.2122C93.6176,39.6235,95.7493,39.8408,97.3094,37.7086L97.3094,37.7086z" fill="#3A3A77"/></g></g></g><g><g><g><g><path d="M93.5291,44.3838c0.0182,0.1914,0.1459,0.3553,0.3282,0.4283         c0.1459,0.0548,0.3647,0.1006,0.6747,0.073l0.4623,0.7469c0.1641,0.4737,0.2762,0.6572,0.9782,0.4017         c0.6929-0.2457,1.1574-0.9426,0.9842-1.4167c0,0-0.3368-0.3609-0.1727-1.5464c0.0547-0.4007-0.1641-0.4283-0.4832-0.2822         c-0.4832-1.4134-2.0878-2.8812-2.7443-1.2309C93.5564,41.5574,93.3741,42.7335,93.5291,44.3838z" fill="#ECB4BF"/><path d="M92.843,41.3098c0.5749-1.1005,2.2435-1.8951,3.6011-0.8294         c1.3575,1.0671,0.3264,3.5721,0.3264,3.5721c-0.1731,0.321-1.1884,0.5525-1.5008,0.5013c0,0-0.5105-0.7114-0.5489-0.9923         c-0.0589-0.4318,0.0047-1.117-0.4575-0.9821c-0.4622,0.1349-0.1312,0.6931-0.1312,0.6931         c-0.8684-0.1246-0.7985-1.4629-0.7985-1.4629c-0.253,0.276-0.2632,0.8499-0.2632,0.8499         c-0.3317-1.3209,0.2822-1.6543,0.2822-1.6543C93.047,41.0565,92.843,41.3098,92.843,41.3098z" fill="#6262AA"/></g><g><g><g><g><g><g><g><g><g><path d="M95.8098,68.0987c0,0-0.4628-0.8961-2.2294-0.4556                 c-1.0592,0.2639-1.4088,0.1083-1.7801,0.2887c-0.2703,0.1302-0.2999,0.5084-0.0591,0.6357                 c0.8433,0.4426,2.2763,0.6955,3.2949,0.9724C96.3835,69.9063,95.8098,68.0987,95.8098,68.0987z" fill="#2A2A5E"/><path d="M98.3347,66.3173c0,0-0.4628-0.8964-2.2294-0.4559                 c-1.0592,0.2642-1.4088,0.1086-1.7801,0.2887c-0.2704,0.1305-0.2999,0.5084-0.0592,0.636                 c0.8433,0.4426,2.2763,0.6955,3.2949,0.9724C98.9084,68.1249,98.3347,66.3173,98.3347,66.3173z" fill="#2A2A5E"/><path d="M95.7287,68.1098c0.0274-0.0099,0.0527-0.0162,0.0807-0.0269                 c0,0-0.0327-0.6612-0.0807-1.5557V68.1098z" fill="#2A2A5E"/><path d="M98.2093,59.3987c0.884-4.231,0.0821-4.7458-0.2923-5.3564                 c-0.0752-0.1227-1.0806,0.382-2.1883,0.7541v4.3c0.0025,0.009,0.005,0.0179,0.0075,0.0266                 c0.33,1.1834,0.4987,2.4073,0.5434,3.6348l0.1107,3.0424c0.7187,1.365,1.9442,0.5451,1.9442,0.5451                 C98.5988,63.449,97.6486,62.0823,98.2093,59.3987z" fill="#3A3A77"/><path d="M96.0174,58.5508c0.4666-0.731,1.2103-2.2895,0.5183-4.037                 c-1.2603,0.5408-2.6582,0.9239-3.6871,0.1204c0,0-0.8871,1.2637,0.259,5.4003                 c0.3636,1.313,0.3821,2.3715,0.407,3.7324l0.0658,3.8762c0,0,0.5781,1.0726,2.229,0.4394                 c0,0-0.1605-3.252-0.2947-5.1182c-0.0612-0.8502-0.0767-1.7051-0.0447-2.5574                 C95.4908,59.854,95.7646,58.9469,96.0174,58.5508z" fill="#4C4A8B"/><path d="M96.9566,44.6168c-0.1309,0.5996-0.9968,0.6123-1.6145,0.5564                 c-0.2918-0.0263-0.5856,0.0754-0.773,0.3009c-0.2673,0.3208-0.6049,0.6048-0.9276,0.8483                 c-1.1531,0.8702-1.2752,1.8957-1.1203,2.5998c0.1775,0.8069,0.3273,5.7116,0.3273,5.7116                 c-0.2512,2.0336,5.0685-0.5915,5.0685-0.5915c-0.2759-1.0232-0.3212-4.0293,0.4058-6.8015                 C99.2096,43.8592,96.9566,44.6168,96.9566,44.6168z" fill="#3887E5"/></g></g></g></g></g></g><g><g><path d="M93.5775,43.2837c-0.0424-0.0593-0.1003-0.0899-0.1732-0.0913             c-0.1135-0.0033-0.2938,0.0016-0.4839,0.0449c0.1871-0.1991,0.4832-0.5099,0.6264-0.6625             c0.145-0.1602-0.662-0.2594-0.8367-0.1798c0,0-0.4704,0.3905-0.599,0.7832c-0.0451,0.1195-0.112,0.2255-0.1864,0.3297             c-0.1259,0.1486-2.3969,1.2462-2.7238,2.1287c-0.2217,0.593-0.1223,0.8448,0.3443,1.27             c0.6924,0.6196,1.1931,0.849,1.7514,1.2075c0.9111-0.1539,1.0672-0.1542,1.1563-0.402             c0.0026-0.053,0.0026-0.1311,0.0154-0.2582c0.0269-0.4456-0.2822-0.6721-0.0949-1.0502             c-0.0783-0.0115-0.1441-0.0357-0.1992-0.0663c-0.4565-0.2543-0.9022-0.5277-1.394-0.7041l-0.1369-0.0491             c0.1065-0.403,1.568-1.3133,1.9163-1.8723c0.0308,0.0074,0.056,0.0054,0.056,0.0054s0.2938-0.0343,0.493-0.1488             c0.1146-0.0697,0.2818-0.1186,0.4084-0.1366C93.5861,43.416,93.6124,43.341,93.5775,43.2837z" fill="#ECB4BF"/><g><g><g><path d="M91.7771,46.0475c0.7081,0.0436,1.5299,0.4119,1.8542,0.485                c0.8735,0.1974,1.3904,1.1331,1.0624,1.6316c-0.3266,0.4996-1.023,0.8069-1.8955,0.6093                c-0.2861-0.0645-1.0726-0.3848-1.6409-0.6534C92.1454,47.344,91.7793,46.0528,91.7771,46.0475z" fill="#3887E5"/></g></g></g></g></g></g></g></g></g></g></g><g><path d="M100.2834,41.4728c-0.1143-0.1665-0.1997-0.352-0.2243-0.5525c-0.1484-1.2083-1.4007-1.053-1.4007-1.053      l0.5054,1.1117c0.0957,0.399,0.7075,1.899,0.9788,2.4842c0.0957,0.2127-0.0213,0.447-0.2447,0.5055      c-0.4309,0.101-1.1171,0.2925-1.7714,0.5852c0.1649,0.3031,0.3351,0.601,0.4947,0.899      c0.0106,0.0265,0.0159,0.0371,0.0266,0.0478c0.0107,0.0158,0.0266,0.0371,0.0479,0.0691      c0.0744,0.1065,0.1436,0.2127,0.2181,0.3192c0.0798,0.1223,0.1596,0.2395,0.2341,0.3618      c1.2873-0.6065,2.564-1.4629,2.6598-1.8299C101.9496,43.8998,100.9108,42.3876,100.2834,41.4728z" fill="#ECB4BF"/><g><g><g><path d="M99.7284,46.0384c-0.5185,0.4842-1.9327,1.0623-2.2087,1.2475         c-0.7439,0.4985-1.1968-0.0043-1.3332-0.5852c-0.1381-0.5807,0.1175-1.2977,0.8608-1.7953         c0.2435-0.1634,1.0168-0.5142,1.6026-0.7422C98.5339,45.4143,99.7231,46.0365,99.7284,46.0384z" fill="#3887E5"/></g></g></g></g></g></g></g></svg>